<svg width="128" height="128" viewBox="0 0 128 128" fill="none" xmlns="http://www.w3.org/2000/svg">
  <!-- Background circle -->
  <circle cx="64" cy="64" r="60" fill="#667eea"/>
  <circle cx="64" cy="64" r="60" fill="url(#gradient)" opacity="0.8"/>
  
  <!-- Calendar icon -->
  <rect x="24" y="32" width="80" height="64" rx="8" fill="white" opacity="0.95"/>
  <rect x="24" y="32" width="80" height="16" rx="8" fill="#4CAF50"/>
  <rect x="24" y="40" width="80" height="8" rx="0" fill="#4CAF50"/>
  
  <!-- Calendar holes -->
  <circle cx="40" cy="28" r="3" fill="#667eea"/>
  <circle cx="88" cy="28" r="3" fill="#667eea"/>
  
  <!-- Grid lines -->
  <line x1="44" y1="56" x2="44" y2="88" stroke="#e0e0e0" stroke-width="1"/>
  <line x1="64" y1="56" x2="64" y2="88" stroke="#e0e0e0" stroke-width="1"/>
  <line x1="84" y1="56" x2="84" y2="88" stroke="#e0e0e0" stroke-width="1"/>
  <line x1="32" y1="64" x2="96" y2="64" stroke="#e0e0e0" stroke-width="1"/>
  <line x1="32" y1="76" x2="96" y2="76" stroke="#e0e0e0" stroke-width="1"/>
  
  <!-- Sample shifts -->
  <rect x="34" y="58" width="8" height="4" rx="1" fill="#FFD700"/>
  <rect x="54" y="58" width="8" height="4" rx="1" fill="#4CAF50"/>
  <rect x="74" y="66" width="8" height="4" rx="1" fill="#2196F3"/>
  <rect x="54" y="78" width="8" height="4" rx="1" fill="#f44336"/>
  
  <!-- Gradient definition -->
  <defs>
    <linearGradient id="gradient" x1="0%" y1="0%" x2="100%" y2="100%">
      <stop offset="0%" style="stop-color:#764ba2;stop-opacity:1" />
      <stop offset="100%" style="stop-color:#667eea;stop-opacity:1" />
    </linearGradient>
  </defs>
</svg>